# xmcd
#
# Track frame offsets:
#	150
#	21977
#	37737
#	55722
#	70390
#	82452
#	101652
#	122965
#	143240
#	167890
#	187425
#	202025
#	214875
#	230562
#	249980
#	283280
#	304612
#
# Disc length: 4230 seconds
#
# Revision: 6
# Processed by: cddbd v1.5.2PL0 Copyright (c) Steve Scherf et al.
# Submitted via: EZCDAudioConverter 2.1.7.1
#
DISCID=0e108411
DTITLE=Marvin Gaye - Let's Get It On 1/2
DYEAR=1973
DGENRE=
TTITLE0=Marvin Gaye - Let's Get It On
TTITLE1=Marvin Gaye - Please Stay (Once You Go Away)
TTITLE2=Marvin Gaye - If I Should Die Tonight
TTITLE3=Marvin Gaye - Keep Gettin' It On
TTITLE4=Marvin Gaye - Come Get To This
TTITLE5=Marvin Gaye - Distant Lover
TTITLE6=Marvin Gaye - You Sure Love To Ball
TTITLE7=Marvin Gaye - Just To Keep You Satisfied
TTITLE8=Marvin Gaye - 'Song #3' [Instrumental]
TTITLE9=Marvin Gaye - My Love Is Growing
TTITLE10=Marvin Gaye - Cakes [Instrumental]
TTITLE11=Marvin Gaye - Symphony [Undubbed Version]
TTITLE12=Marvin Gaye - I'd Give My Life For You [Alternate Mix]
TTITLE13=The Miracles - I Love You Secretly
TTITLE14=Marvin Gaye - You're The Man [Alternate Version 1]
TTITLE15=Marvin Gaye - You're The Man [Alternate Version 2]
TTITLE16=Marvin Gaye - Symphony [Demo Vocal]
EXTD=
EXTT0=
EXTT1=
EXTT2=
EXTT3=
EXTT4=
EXTT5=
EXTT6=
EXTT7=
EXTT8=
EXTT9=
EXTT10=
EXTT11=
EXTT12=
EXTT13=
EXTT14=
EXTT15=
EXTT16=
PLAYORDER=
